<?xml version="1.0" encoding="UTF-8" standalone="no"?>
<svg width="25px" height="25px" viewBox="0 0 25 25" version="1.1" xmlns="http://www.w3.org/2000/svg" xmlns:xlink="http://www.w3.org/1999/xlink">
    <!-- Generator: sketchtool 3.7.2 (28276) - http://www.bohemiancoding.com/sketch -->
    <title>F28BF866-4335-4C05-A314-50F67D507E12</title>
    <desc>Created with sketchtool.</desc>
    <defs></defs>
    <g id="000.-System" stroke="none" stroke-width="1" fill="none" fill-rule="evenodd">
        <g id="System" transform="translate(-3707.000000, -3232.000000)" fill="#FFFFFF">
            <path d="M3731.32432,3255.75 C3731.32432,3256.50676 3730.9527,3257 3730.2027,3257 L3723.89189,3257 L3723.89189,3247.54054 L3727.10135,3247.54054 L3727.58784,3243.48649 L3723.89189,3243.48649 L3723.89189,3241.37838 C3723.89189,3240.2973 3724.18243,3239.43243 3725.73649,3239.43243 L3727.94595,3239.43243 L3727.94595,3236.20946 C3727.27027,3236.16216 3726.22297,3236.06081 3724.85135,3236.06081 C3722,3236.06081 3719.83784,3237.80405 3719.83784,3241.00676 L3719.83784,3243.48649 L3716.45946,3243.48649 L3716.45946,3247.54054 L3719.83784,3247.54054 L3719.83784,3257 L3708.13514,3257 C3707.37838,3257 3707,3256.50676 3707,3255.75 L3707,3233.68243 C3707,3232.92568 3707.37838,3232 3708.13514,3232 L3730.2027,3232 C3730.9527,3232 3731.32432,3232.92568 3731.32432,3233.68243 L3731.32432,3255.75 L3731.32432,3255.75 Z" id="Facebook"></path>
        </g>
    </g>
</svg>