<?xml version="1.0" encoding="UTF-8" standalone="no"?>
<svg width="21px" height="20px" viewBox="0 0 21 20" version="1.1" xmlns="http://www.w3.org/2000/svg" xmlns:xlink="http://www.w3.org/1999/xlink">
    <!-- Generator: sketchtool 3.7.2 (28276) - http://www.bohemiancoding.com/sketch -->
    <title>AB4B6D2F-3386-4794-9F78-23AEAF266E37</title>
    <desc>Created with sketchtool.</desc>
    <defs></defs>
    <g id="000.-System" stroke="none" stroke-width="1" fill="none" fill-rule="evenodd">
        <g id="System" transform="translate(-4625.000000, -3235.000000)" fill="#CCCCCC">
            <path d="M4642.74454,3249.89313 C4641.54767,3249.495 4640.26079,3249.1975 4638.90642,3249.005 C4639.09079,3247.92188 4639.18892,3246.78688 4639.22017,3245.625 L4644.22329,3245.625 C4644.11142,3247.20062 4643.58204,3248.65875 4642.74454,3249.89313 L4642.74454,3249.89313 Z M4637.64329,3253.47438 C4638.05954,3252.46875 4638.40017,3251.38188 4638.66204,3250.23688 C4639.78579,3250.40312 4640.86329,3250.64875 4641.88392,3250.97125 C4640.75642,3252.17313 4639.29267,3253.0575 4637.64329,3253.47438 L4637.64329,3253.47438 Z M4636.10392,3253.71938 C4635.90267,3253.73375 4635.70204,3253.75 4635.49704,3253.75 C4635.29204,3253.75 4635.09204,3253.73375 4634.89017,3253.71938 C4634.35829,3252.61188 4633.92767,3251.37937 4633.60892,3250.07125 C4634.23017,3250.01688 4634.85954,3249.985 4635.49704,3249.985 C4636.13454,3249.985 4636.76392,3250.01688 4637.38579,3250.07125 C4637.06642,3251.37937 4636.63579,3252.61188 4636.10392,3253.71938 L4636.10392,3253.71938 Z M4629.11017,3250.97125 C4630.13079,3250.64875 4631.20829,3250.40312 4632.33204,3250.23688 C4632.59392,3251.38188 4632.93454,3252.46875 4633.35079,3253.47438 C4631.70142,3253.0575 4630.23829,3252.17313 4629.11017,3250.97125 L4629.11017,3250.97125 Z M4628.24954,3249.89313 C4627.41204,3248.65875 4626.88267,3247.20062 4626.77079,3245.625 L4631.77392,3245.625 C4631.80517,3246.78688 4631.90329,3247.92188 4632.08767,3249.005 C4630.73329,3249.1975 4629.44642,3249.495 4628.24954,3249.89313 L4628.24954,3249.89313 Z M4628.24954,3240.10687 C4629.44642,3240.505 4630.73329,3240.80312 4632.08767,3240.995 C4631.90329,3242.07812 4631.80517,3243.21312 4631.77392,3244.375 L4626.77079,3244.375 C4626.88267,3242.79938 4627.41204,3241.34125 4628.24954,3240.10687 L4628.24954,3240.10687 Z M4633.35079,3236.52563 C4632.93454,3237.53125 4632.59392,3238.61813 4632.33204,3239.76313 C4631.20829,3239.5975 4630.13079,3239.35125 4629.11017,3239.02875 C4630.23829,3237.82688 4631.70142,3236.9425 4633.35079,3236.52563 L4633.35079,3236.52563 Z M4634.89017,3236.28062 C4635.09204,3236.26687 4635.29204,3236.25 4635.49704,3236.25 C4635.70204,3236.25 4635.90267,3236.26687 4636.10392,3236.28062 C4636.63579,3237.38812 4637.06642,3238.62125 4637.38579,3239.92875 C4636.76392,3239.98313 4636.13454,3240.015 4635.49704,3240.015 C4634.85954,3240.015 4634.23017,3239.98313 4633.60892,3239.92875 C4633.92767,3238.62125 4634.35829,3237.38812 4634.89017,3236.28062 L4634.89017,3236.28062 Z M4637.96829,3245.625 C4637.93454,3246.72563 4637.83454,3247.80813 4637.64642,3248.8475 C4636.94267,3248.78625 4636.22704,3248.75 4635.49704,3248.75 C4634.76704,3248.75 4634.05142,3248.78625 4633.34829,3248.8475 C4633.15954,3247.80813 4633.05954,3246.72563 4633.02642,3245.625 L4637.96829,3245.625 L4637.96829,3245.625 Z M4633.02642,3244.375 C4633.05954,3243.27438 4633.15954,3242.19187 4633.34829,3241.1525 C4634.05142,3241.21375 4634.76704,3241.25 4635.49704,3241.25 C4636.22704,3241.25 4636.94267,3241.21375 4637.64579,3241.1525 C4637.83454,3242.19187 4637.93454,3243.27438 4637.96829,3244.375 L4633.02642,3244.375 L4633.02642,3244.375 Z M4641.88392,3239.02875 C4640.86329,3239.35125 4639.78579,3239.5975 4638.66204,3239.76313 C4638.40017,3238.61813 4638.05954,3237.53125 4637.64329,3236.52563 C4639.29267,3236.9425 4640.75642,3237.82688 4641.88392,3239.02875 L4641.88392,3239.02875 Z M4642.74454,3240.10687 C4643.58204,3241.34125 4644.11142,3242.79938 4644.22329,3244.375 L4639.22017,3244.375 C4639.18892,3243.21312 4639.09079,3242.07812 4638.90642,3240.995 C4640.26079,3240.80312 4641.54767,3240.505 4642.74454,3240.10687 L4642.74454,3240.10687 Z M4635.49704,3235 C4629.97454,3235 4625.49704,3239.47687 4625.49704,3245 C4625.49704,3250.52313 4629.97454,3255 4635.49704,3255 C4641.01954,3255 4645.49704,3250.52313 4645.49704,3245 C4645.49704,3239.47687 4641.01954,3235 4635.49704,3235 L4635.49704,3235 Z" id="Fill-110"></path>
        </g>
    </g>
</svg>