<?xml version="1.0" encoding="UTF-8" standalone="no"?>
<svg width="120px" height="56px" viewBox="0 0 120 56" version="1.1" xmlns="http://www.w3.org/2000/svg" xmlns:xlink="http://www.w3.org/1999/xlink">
    <!-- Generator: Sketch 3.7.2 (28276) - http://www.bohemiancoding.com/sketch -->
    <title>Group 7</title>
    <desc>Created with Sketch.</desc>
    <defs></defs>
    <g id="Symbols" stroke="none" stroke-width="1" fill="none" fill-rule="evenodd">
        <g id="NAV" transform="translate(-44.000000, -52.000000)">
            <g id="Group-7" transform="translate(44.000000, 52.000000)">
                <g id="Group-6" transform="translate(68.000000, 0.000000)">
                    <g id="Group" transform="translate(17.000000, 0.000000)">
                        <path d="M28.5309161,8.92025806 C28.5063484,8.68144516 28.507071,8.49935484 28.4655226,8.32738065 C28.3770065,7.95886452 28.344129,7.448 27.8381419,7.50056774 C27.3776774,7.54843871 27.1787871,7.98993548 27.1733677,8.43847742 C27.1683097,8.85378065 27.2201548,9.27089032 27.2660387,9.68492903 C27.2958452,9.95463226 27.1347097,10.3545806 27.5818065,10.4019097 C28.0314323,10.4492387 28.3103484,10.1766452 28.4055484,9.74490323 C28.4693161,9.45532903 28.4960516,9.15762581 28.5309161,8.92025806 L28.5309161,8.92025806 Z M3.67956129,37.6997419 C4.23323871,37.6845677 5.30283871,36.722271 5.39550968,36.1642581 C5.44590968,35.8609548 5.33409032,35.6320774 5.08172903,35.4825032 C4.81636129,35.3249806 4.51811613,35.2189419 4.2484129,35.4481806 C3.81739355,35.814529 3.36668387,36.1794323 3.09390968,36.683071 C2.76965161,37.2813677 3.03953548,37.7172645 3.67956129,37.6997419 L3.67956129,37.6997419 Z M8.57504516,20.8441032 C8.56908387,22.2833032 9.76188387,23.0721806 11.1141935,22.6836129 C11.4436903,22.5889548 11.7997419,22.4630452 11.6523355,22.0282323 C11.538529,21.6922323 11.2619613,21.495329 10.8674323,21.6591742 C10.2299355,21.9238194 9.77452903,21.5511484 9.32508387,21.2026839 C9.10975484,21.0357677 8.88701935,20.8148387 9.26185806,20.5711484 C9.4435871,20.4530065 9.65132903,20.3460645 9.49778065,20.0890065 C9.44683871,20.0035613 9.3108129,19.9318452 9.20730323,19.9219097 C8.93416774,19.8955355 8.73979355,20.0581161 8.66139355,20.2987355 C8.58877419,20.5216516 8.58606452,20.7671484 8.57504516,20.8441032 L8.57504516,20.8441032 Z M3.556,33.0456 C3.25757419,33.0945548 2.93331613,33.1563355 2.60652903,33.1991484 C2.16376774,33.2569548 1.86082581,33.4379613 1.90544516,33.9443097 C1.95060645,34.453729 2.3388129,34.4577032 2.70371613,34.4524645 C3.43027097,34.4423484 4.14056774,34.5333935 4.83785806,34.7331871 C5.0288,34.7879226 5.26129032,34.9781419 5.39261935,34.722529 C5.47698065,34.5583226 5.47336774,34.2967484 5.40707097,34.1162839 C5.0979871,33.272671 4.35300645,33.1366452 3.556,33.0456 L3.556,33.0456 Z M32.3967226,33.2145032 C31.732129,33.1901161 31.1618323,33.2401548 30.6699355,33.5629677 C30.2042323,33.8686194 30.1039742,34.3811097 30.3039484,34.8336258 C30.5214452,35.3258839 30.9204903,34.9430968 31.2228903,34.8428387 C31.7044903,34.6831484 32.1729032,34.5010581 32.6882839,34.4553548 C33.1182194,34.4172387 33.7790194,34.6643613 33.7945548,33.9186581 C33.8099097,33.1816258 33.1456774,33.2887484 32.6658839,33.2170323 C32.5491871,33.1996903 32.4274323,33.2145032 32.3967226,33.2145032 L32.3967226,33.2145032 Z M15.3141935,29.2450065 C14.9534452,29.428 15.0797161,29.6991484 15.2072516,29.9146581 C15.6897548,30.7300903 16.5073548,30.9166968 17.3634323,31.004671 C18.1082323,31.0812645 18.8568258,31.1235355 19.5483355,31.4622452 C19.7472258,31.5596129 19.9500903,31.8876645 20.1614452,31.676671 C20.4067613,31.4318968 20.2122065,31.1148645 20.0499871,30.8587097 C19.8695226,30.5738323 19.6180645,30.3538065 19.3219871,30.2027871 C18.0670452,29.5631226 16.5624516,29.9908903 15.3141935,29.2450065 L15.3141935,29.2450065 Z M11.8915097,24.5140903 C11.7422968,24.9769032 12.0069419,25.2364903 12.1135226,25.5267871 C12.4751742,26.512929 12.1006968,27.4882323 11.1622452,27.9510452 C10.5691871,28.2435097 9.9699871,28.5240516 9.37783226,28.8183226 C8.73383226,29.1382452 8.27643871,29.6541677 7.95344516,30.2799226 C7.52748387,31.1047484 7.75058065,31.8652645 8.50748387,32.2899613 C8.96216774,32.5452129 10.2424,32.191329 10.5569032,31.7249032 C10.6844387,31.5355871 10.7386323,31.3276645 10.5968258,31.1379871 C10.4277419,30.9118194 10.2227097,31.0241806 10.0393548,31.1401548 C9.91254194,31.2203613 9.80343226,31.3325419 9.67065806,31.3990194 C9.24505806,31.6116387 8.77032258,31.9478194 8.38338065,31.4188903 C8.03021935,30.9360258 8.47370323,30.5586581 8.75821935,30.2510194 C9.03695484,29.9495226 9.4211871,29.7388903 9.77669677,29.5168774 C10.2855742,29.1989419 10.8192,28.9203871 11.3271742,28.6010065 C12.9157677,27.6022194 13.2210581,25.7399484 11.8915097,24.5140903 L11.8915097,24.5140903 Z M15.1745548,20.1818581 C15.1637161,20.9958452 15.2917935,21.5451871 15.6355613,22.0748387 C16.5817806,23.5330065 18.1875355,23.8883355 19.6343226,24.4904258 C20.1029161,24.6853419 20.095871,24.2525161 19.9901935,23.9506581 C19.6897806,23.0922323 19.1182194,22.4068645 18.3141677,22.0358194 C17.2546839,21.5468129 16.2443355,20.9929548 15.1745548,20.1818581 L15.1745548,20.1818581 Z M28.0906839,24.3200774 C28.2216516,23.6260387 27.7655226,23.3805419 27.1751742,23.2936516 C26.3111484,23.1664774 25.5211871,23.4856774 24.7267097,23.7584516 C23.584671,24.1504516 22.4251097,24.4262968 21.2019613,24.2926194 C20.9871742,24.2689548 20.6764645,24.1047484 20.6249806,24.4766968 C20.5888516,24.7379097 20.804,24.923071 21.0487742,24.9928 C21.7157161,25.1824774 22.3884387,25.2953806 23.0904258,25.1761548 C24.2176516,24.9848516 25.3197677,24.7162323 26.3817806,24.2839484 C26.6966452,24.1556903 27.0637161,24.0989677 27.2416516,24.4897032 C27.3899613,24.8152258 27.1614452,25.0632516 26.9237161,25.2594323 C26.4811355,25.6241548 25.9917677,25.9099355 25.448929,26.1064774 C25.2572645,26.1758452 25.0159226,26.2697806 25.1467097,26.5494194 C25.2444387,26.7586065 25.4579613,26.8185806 25.6828645,26.7992516 C26.491071,26.7295226 28.0316129,25.1631484 28.0906839,24.3200774 L28.0906839,24.3200774 Z M25.6879226,5.91341935 C24.0296,5.89535484 22.7101677,7.13945806 22.6460387,8.60449032 C22.6055742,9.52415484 22.8922581,10.3824 23.1233032,11.2556387 C23.4753806,12.5864516 23.9726968,13.9048 23.5931613,15.3270194 C23.5319226,15.5568 23.2488516,15.8736516 23.600929,16.0398452 C23.8959226,16.1791226 24.1865806,15.9352516 24.3856516,15.7159484 C24.5402839,15.5457806 24.6689032,15.3116645 24.7117161,15.0874839 C24.8746581,14.2339355 25.0271226,13.3908645 24.9035613,12.496129 C24.7259871,11.2084903 24.3820387,9.968 24.0704258,8.71432258 C23.6468129,7.01138065 24.4362323,6.24418065 26.0660129,6.75143226 C26.3317419,6.83416774 26.4713806,6.73300645 26.5895226,6.54784516 C26.7470452,6.30090323 26.6151742,6.13976774 26.3808774,6.0704 C26.0954581,5.98621935 25.7993806,5.9379871 25.6879226,5.91341935 L25.6879226,5.91341935 Z M12.5084129,9.79945806 C12.4381419,8.52988387 12.2235355,7.54590968 11.5466581,6.71169032 C10.9451097,5.97050323 9.42552258,5.51690323 8.59437419,5.84459355 C8.36910968,5.93347097 8.10446452,6.03300645 8.14384516,6.32727742 C8.18611613,6.64196129 8.4504,6.76172903 8.74304516,6.75594839 C8.91827097,6.75251613 9.10415484,6.71132903 9.26474839,6.64069677 C9.9324129,6.34732903 10.3979355,6.5875871 10.8257032,7.12428387 C11.4391742,7.89365161 11.5956129,8.74376774 11.3589677,9.66632258 C11.1651355,10.4216 10.9140387,11.1624258 10.6804645,11.9072258 C10.3881806,12.8393548 10.2434839,13.7718452 10.5290839,14.7395613 C10.8883871,15.9572903 12.3886452,16.6132129 13.5151484,16.0299097 C13.7463742,15.9103226 13.9561032,15.7804387 13.795329,15.4834581 C13.6556903,15.2251355 13.4353032,15.1662452 13.1992,15.3631484 C12.8763871,15.6324903 12.5604387,16.0055226 12.1023226,15.7137806 C11.6405935,15.4195097 11.8208774,14.9006968 11.8089548,14.467329 C11.801729,14.2006968 11.8613419,13.9309935 11.902529,13.6645419 C12.1142452,12.3012129 12.3295742,10.9384258 12.5084129,9.79945806 L12.5084129,9.79945806 Z M7.00830968,40.5967484 C8.17852903,40.4455484 9.34332903,40.3192774 10.4981935,40.1317677 C10.8728516,40.0708903 11.2525677,39.8983742 11.5752,39.6913548 C12.1628387,39.3143484 12.2948903,38.653729 12.0746839,38.0940903 C11.8441806,37.5080774 11.3192258,37.9996129 10.9955097,38.1098065 C8.68812903,38.8959742 6.35383226,39.0171871 3.97274839,38.5525677 C3.67107097,38.4936774 3.29984516,38.1775484 3.06301935,38.5307097 C2.81571613,38.8992258 3.10474839,39.275871 3.29135484,39.6165677 C3.45989677,39.9243871 3.7259871,40.1259871 4.06939355,40.1785548 C5.04830968,40.3284903 6.03011613,40.4589161 7.00830968,40.5967484 L7.00830968,40.5967484 Z M28.6795871,40.7103742 C29.5840774,40.6964645 30.4533419,40.4491613 31.3397677,40.3041032 C32.1799484,40.1666323 32.4949935,39.6687742 32.6452903,38.9252387 C32.7359742,38.4766968 32.6086194,38.3675871 32.1893419,38.5177032 C31.5003613,38.7642839 30.7824774,38.7767484 30.058271,38.8107097 C28.1387355,38.900671 26.2878452,38.5782194 24.4799484,37.9726968 C23.8433548,37.7593548 23.7472516,38.0151484 23.8077677,38.575871 C23.9027871,39.4543484 24.4382194,39.9484129 25.2222194,40.1245419 C26.3602839,40.3801548 27.4891355,40.7304258 28.6795871,40.7103742 L28.6795871,40.7103742 Z M11.3109161,35.1233806 C12.0309677,35.8806452 12.5911484,36.5381935 12.7596903,37.4358194 C12.8314065,37.8171613 13.1939613,37.9073032 13.5017806,38.0198452 C16.3801806,39.0726452 19.2903742,39.2487742 22.2464516,38.3525935 C22.8306581,38.1755613 23.1556387,37.8505806 23.2389161,37.2275355 C23.315329,36.6556129 23.5501677,36.1377032 23.9952774,35.728 C24.1645419,35.5721032 24.6047742,35.4882839 24.351871,35.1423484 C24.1661677,34.8881806 23.8494968,35.0704516 23.6020129,35.1667355 C23.2943742,35.2865032 22.9921548,35.4207226 22.6906581,35.5558452 C19.6776774,36.9056258 16.6786065,37.3783742 13.6224516,35.6158194 C13.0122323,35.2637419 12.2780903,34.9548387 11.3109161,35.1233806 L11.3109161,35.1233806 Z M12.3572129,19.8353806 C12.6762323,19.4428387 12.2000516,18.8199742 12.7692645,18.672929 C13.3726194,18.5172129 13.4105548,19.1856 13.6954323,19.491071 C13.8744516,19.6829161 13.9649548,20.0584774 14.2651871,20.0010323 C14.6120258,19.9347355 14.4794323,19.5557419 14.5030968,19.3080774 C14.5627097,18.6792516 14.7910452,18.1385806 15.2757161,17.7286968 C15.7013161,17.3684903 15.7844129,16.9427097 15.6021419,16.4332903 C15.133729,15.1245161 14.6320774,13.8471742 13.347871,13.0792516 C12.8386323,12.7745032 12.5822968,12.8442323 12.5093161,13.4634839 C12.4403097,14.0491355 12.2401548,14.6279226 12.4251355,15.2012903 C12.658529,15.2887226 12.7443355,15.1424 12.8521806,15.0462968 C13.1016516,14.8232 13.2223226,14.3103484 13.6813419,14.5278452 C14.1676387,14.7583484 14.4192774,15.2264 14.5012903,15.755329 C14.5800516,16.2651097 14.1838968,16.4126968 13.8195355,16.5731097 C12.5649548,17.1257032 11.6664258,16.9983484 10.7086452,15.9988387 C10.1715871,15.4384774 9.62387097,15.2038194 8.86498065,15.4075871 C8.12,15.6075613 7.98541935,15.2110452 8.05966452,14.5589161 C8.10030968,14.2017806 8.55192258,13.5917419 8.02787097,13.5187613 C7.48412903,13.443071 6.83633548,13.8549419 6.77455484,14.5796903 C6.63021935,16.2725161 5.44699355,16.9604129 4.06975484,17.4844645 C3.65011613,17.6443355 3.25938065,17.6952774 2.93349677,17.276 C2.54510968,16.7761548 2.03731613,17.1509935 1.58371613,17.1197419 C1.24464516,17.0962581 0.784722581,17.3690323 0.600645161,16.9497548 C0.430658065,16.5626323 0.531277419,16.0553806 0.875406452,15.7898323 C1.45618065,15.3418323 1.68415484,14.8967226 1.34851613,14.1790194 C1.15811613,13.7720258 1.5512,13.6047484 1.86769032,13.4882323 C2.84787097,13.1271226 3.85569032,12.9995871 4.88464516,13.2226839 C5.32072258,13.3171613 5.69483871,13.2967484 6.07473548,13.0171097 C7.08110968,12.2759226 8.23922581,11.8476129 9.42028387,11.4760258 C9.59225806,11.4218323 9.77037419,11.3763097 9.92934194,11.2946581 C10.2201806,11.1452645 10.4006452,10.8860387 10.3594581,10.564129 C10.3184516,10.2436645 10.0122581,10.1748387 9.74526452,10.1246194 C9.36139355,10.0523613 8.97246452,10.0064774 8.58624516,9.94632258 C8.2412129,9.89249032 7.95362581,9.76007742 7.82338065,9.40005161 C7.60136774,8.78658065 7.28162581,8.86335484 6.91021935,9.27251613 C6.60258065,9.61176774 6.28554839,9.77254194 5.80051613,9.52849032 C5.35540645,9.30485161 4.98237419,9.64861935 4.68304516,9.92464516 C4.24895484,10.3249548 3.74965161,10.5695484 3.20843871,10.7698839 C2.60092903,10.9949677 2.07994839,11.1051613 1.67132903,10.3867355 C1.44750968,9.99365161 0.933032258,9.8971871 0.522967742,9.70985806 C0.00578064516,9.47393548 -0.280903226,9.15292903 0.402477419,8.79236129 C1.16913548,8.38807742 1.62454194,7.90286452 1.37019355,6.94905806 C1.26541935,6.55651613 1.48616774,6.22322581 1.99811613,6.35979355 C3.07963871,6.64864516 4.28020645,6.67014194 4.89710968,7.90141935 C5.13375484,8.37380645 6.17661935,8.1723871 6.7872,7.58529032 C7.26482581,7.12590968 6.82061935,6.81104516 6.54983226,6.54134194 C5.99741935,5.99127742 5.41303226,5.67406452 4.53473548,5.98152258 C2.88941935,6.55778065 2.01690323,6.18131613 1.17058065,4.66498065 C0.861858065,4.11220645 -0.431922581,3.67974194 0.855354839,2.828 C0.903587097,2.79620645 0.854270968,2.59767742 0.831329032,2.48061935 C0.694941935,1.78423226 0.91316129,1.42203871 1.67981935,1.56583226 C2.2363871,1.67042581 2.58936774,1.39584516 2.89411613,0.685548387 C3.20771613,1.71576774 3.79282581,2.14064516 4.65125161,2.33122581 C5.23256774,2.46020645 5.37545806,3.08144516 5.46849032,3.6307871 C5.50859355,3.86725161 5.50949677,4.11383226 5.57814194,4.34072258 C5.64100645,4.54828387 5.7979871,4.71917419 6.04727742,4.68015484 C6.30794839,4.63932903 6.34299355,4.41424516 6.3672,4.2 C6.41037419,3.81829677 6.25212903,3.49765161 6.06389677,3.18224516 C5.85452903,2.83125161 5.65816774,2.47267097 5.38629677,1.99450323 C6.07636129,2.03713548 6.67935484,2.3408 7.06900645,1.70492903 C7.09375484,1.66446452 7.29770323,1.69427097 7.39236129,1.74232258 C8.40849032,2.25860645 8.70456774,3.98322581 7.93736774,4.84327742 C7.78418065,5.01507097 7.53705806,5.12580645 7.52694194,5.47065806 C8.23904516,5.51744516 8.92585806,5.27249032 9.63868387,5.33372903 C10.5209548,5.40941935 11.2760516,5.6784 11.9101161,6.29674839 C12.0454194,6.4288 12.1697032,6.74926452 12.3911742,6.56265806 C12.619871,6.36972903 12.5333419,6.0555871 12.3546839,5.8259871 C12.2659871,5.71181935 12.1243613,5.6355871 11.9997161,5.55303226 C11.2543742,5.05914839 11.1094968,4.36203871 11.396,3.57587097 C11.6026581,3.00900645 11.8701935,2.47827097 11.7578323,1.83932903 C11.6929806,1.47063226 11.9438968,1.44498065 12.2148645,1.56691613 C12.5985548,1.7396129 12.9878452,1.90616774 13.2644129,2.24849032 C13.6468387,2.72196129 13.9542968,2.56443871 14.1015226,2.08030968 C14.3130581,1.38464516 14.5412129,1.61966452 14.8389161,2.00588387 C15.6507355,3.05940645 15.5566194,4.59254194 14.6109419,5.55917419 C13.7207226,6.46890323 13.5019613,8.71378065 14.1927484,9.75032258 C14.3685161,10.0142452 14.5507871,10.1649032 14.8461419,9.92699355 C15.2012903,9.64103226 15.8012129,9.46670968 15.5286194,8.83589677 C15.319071,8.35086452 15.2256774,7.86962581 15.2254968,7.34990968 C15.2251355,6.65514839 15.5013419,6.02541935 16.086271,5.76113548 C17.0095484,5.34384516 17.7704258,4.78818065 18.381729,3.74712258 C18.5862194,4.67310968 18.9635871,5.00369032 19.7501161,4.78077419 C20.2154581,4.64908387 20.2792258,5.03114839 20.2237677,5.40905806 C20.1524129,5.89499355 20.0592,6.37370323 20.7073548,6.58939355 C21.0998968,6.72018065 20.8764387,7.00216774 20.7268645,7.15065806 C20.3303484,7.54392258 20.1170065,8.03672258 19.8722323,8.51922581 C19.3422194,9.56407742 18.4100903,9.87930323 17.3191742,9.88978065 C16.8682839,9.89411613 16.4018581,9.85094194 16.0776,10.2682323 C15.7564129,10.6819097 15.1687742,11.0847484 15.6263484,11.6602839 C16.0920516,12.2462968 16.1747871,13.1948645 17.4284645,13.0629935 C19.0983484,12.8875871 19.9625548,12.0802839 20.4387355,10.5755097 C20.7122323,9.71148387 21.0218581,8.86931613 21.0395613,7.94983226 C21.0428129,7.7764129 21.0684645,7.51194839 21.1777548,7.44673548 C21.8795613,7.02818065 21.6286452,6.36485161 21.7126452,5.75824516 C21.8288,4.91932903 21.5459097,4.30387097 20.9888,3.73465806 C20.4784774,3.21313548 20.2550194,2.56985806 20.3135484,1.83969032 C20.3390194,1.52247742 20.4640258,1.24157419 20.7864774,1.13228387 C21.0771355,1.03383226 21.2294194,1.27427097 21.3659871,1.46322581 C21.792129,2.05303226 22.2740903,2.11047742 22.8075355,1.62941935 C23.1467871,1.32376774 23.3644645,1.38374194 23.5642581,1.78296774 C24.0263484,2.70642581 24.3668645,3.61850323 23.6285677,4.5715871 C23.5028387,4.7339871 23.4224516,4.94209032 23.3612129,5.14134194 C23.268,5.44482581 22.9086968,5.78859355 23.164671,6.04908387 C23.4567742,6.34624516 23.7306323,5.8184 24.0305032,5.81334194 C25.5457548,5.78823226 26.1633806,4.98381935 26.4032774,3.53468387 C26.5459871,2.67300645 26.7504774,2.73803871 27.3778581,3.42683871 C27.7644387,3.85153548 28.1029677,4.28689032 28.4209032,4.85285161 C28.2106323,3.5411871 28.7110194,2.61845161 29.7573161,1.93850323 C29.9339871,1.8236129 30.0053419,1.53692903 30.1088516,1.32178065 C30.3501935,0.820129032 30.5265032,0.200877419 31.205729,0.955974194 C31.4844645,1.2656 31.7512774,1.03491613 31.9787097,0.819225806 C32.4644645,0.358941935 32.7240516,0.602090323 32.8533935,1.12072258 C32.9800258,1.62923871 33.0614968,2.09458065 33.7582452,2.16105806 C34.2217806,2.20531613 33.9775484,2.56859355 33.8324903,2.77073548 C33.3938839,3.38276129 33.0475871,4.00381935 32.8747097,4.77047742 C32.6747355,5.65708387 31.7057548,6.10309677 30.4202839,5.96327742 C29.7343742,5.88867097 29.2571097,6.14175484 28.8022452,6.56157419 C28.5964903,6.75143226 28.4172903,6.96658065 28.6138323,7.2668129 C28.8013419,7.55331613 29.0737548,7.52369032 29.3374968,7.41909677 C29.8407742,7.21948387 30.3503742,7.02781935 30.831071,6.78141935 C31.3531355,6.51370323 31.6502968,6.55254194 31.5429935,7.21767742 C31.407329,8.05803871 31.6499355,8.54596129 32.5856774,8.53945806 C33.0181419,8.53656774 33.1230968,8.82650323 32.896929,9.14082581 C32.0982968,10.2501677 31.1072774,11.4341161 29.7421419,11.3456 C28.8578839,11.2881548 27.9394839,10.8800774 26.9674323,10.9985806 C26.7900387,11.0202581 26.681471,10.7957161 26.6765935,10.5986323 C26.6536516,9.67427097 26.1296,10.024 25.7085161,10.2387871 C25.3204903,10.4367742 25.1570065,10.7836129 25.2816516,11.225471 C25.4189419,11.7115871 25.2307097,12.3154839 25.9466065,12.5705548 C26.9349161,12.9224516 27.2147355,13.5789161 26.9793548,14.5901677 C26.8877677,14.9841548 26.6460645,15.0242581 26.3881032,14.8698065 C25.7318194,14.4770839 25.5325677,14.8394581 25.2717161,15.380671 C24.6661935,16.6372387 23.7122065,17.0091871 22.5398194,16.5400516 C21.6299097,16.175871 21.3724903,15.6052129 21.7202323,14.680129 C21.8566194,14.3175742 22.0280516,13.9683871 22.1931613,13.5904774 C20.6826065,13.7864774 19.5494194,15.8711226 20.0239742,17.3410323 C20.3205935,18.2594323 20.6728516,18.4292387 21.7061419,18.3002581 C22.985471,18.1407484 24.0527226,17.2127742 25.4277935,17.4647742 C25.8700129,17.5458839 25.9874323,16.9347613 26.0506581,16.5051871 C26.1888516,15.5658323 26.2320258,15.548129 26.9349161,16.0911484 C27.3847226,16.4387097 28.0787613,16.1124645 28.0186065,15.4482323 C27.8717419,13.8265806 29.3895226,13.4546323 30.0878968,12.4809548 C30.2922065,12.1962581 30.5413161,12.496129 30.5776258,12.7414452 C30.7006452,13.5704258 31.1201032,13.9539355 31.9866581,13.8623484 C32.4259871,13.8159226 32.577729,14.1125419 32.4503742,14.5124903 C32.2939355,15.0040258 32.2014452,15.4092129 32.818529,15.704929 C33.2300387,15.9020129 32.9350452,16.1158968 32.6844903,16.2745032 C31.743329,16.8709935 30.7216,17.1762839 29.6059355,17.1307613 C28.84,17.0995097 28.1625806,17.3059871 27.5167742,17.7695226 C27.8399484,18.0428387 28.0850839,17.8190194 28.3354581,17.7908387 C28.512129,17.7709677 28.7961032,17.6625806 28.8479484,17.7317677 C29.5222968,18.6331871 30.1796645,17.9093419 30.8164387,17.7147871 C32.0419355,17.340129 32.6536,17.5003613 33.516,18.5148645 C33.5550194,18.5607484 33.5846452,18.6436645 33.6290839,18.6516129 C35.1040516,18.9160774 34.5763871,20.2044387 34.8645161,21.0713548 C34.9557419,21.3461161 34.8359742,21.8203097 34.6381677,21.719871 C33.6270968,21.2068387 33.7531871,23.4957935 32.6935226,22.4897806 C32.2149935,22.0354581 31.7373677,21.8508387 31.1047484,21.8064 C30.1668387,21.7406452 29.6986065,21.1118194 29.4706323,20.2454452 C29.319071,19.6691871 29.0481032,19.2733935 28.3918194,19.764929 C28.0930323,19.9887484 27.9660387,20.1908903 28.3564129,20.4465032 C28.7251097,20.6878452 28.7619613,21.0046968 28.5585548,21.3842323 C28.3314839,21.8080258 28.0099355,22.0172129 27.5250839,21.8920258 C26.8843355,21.7263742 26.2493677,21.5368774 25.6055484,21.3856774 C25.1734452,21.2841548 24.7225548,21.1698065 24.2543226,21.5889032 C25.1598968,21.9444129 25.8002839,22.6395355 26.877471,22.6100903 C28.0764129,22.5772129 28.5204387,23.113729 28.6250323,24.3142968 C28.6683871,24.8107097 28.9283355,25.0706581 29.3116645,25.286529 C30.125471,25.7446452 30.551071,26.4887226 30.8195097,27.3462452 C30.8998968,27.6031226 31.0267097,27.8789677 30.8144516,28.1159742 C30.5904516,28.3663484 30.3225548,28.1894968 30.0595355,28.1493935 C29.0224516,27.9920516 28.7319742,27.1374194 28.3331097,26.1890323 C28.1546323,26.810271 28.4288516,27.1372387 28.6539355,27.448671 C29.6006968,28.758529 28.8896774,30.3454968 27.6768258,31.3188129 C27.4349419,31.5128258 27.2284645,31.4441806 27.0570323,31.2219871 C26.8366452,30.9363871 26.5810323,30.6654194 26.4218839,30.3474839 C26.0844387,29.6733161 25.5977806,29.4191484 24.8770065,29.6691613 C24.1995871,29.904 24.2315613,29.4805677 24.3338065,29.0598452 C24.4902452,28.4154839 24.9163871,27.9589935 25.62,27.6094452 C25.180129,27.3547355 24.8421419,27.1840258 24.5326968,26.9717677 C24.2911742,26.8062968 23.9795613,26.6298065 24.037729,26.2800774 C24.088129,25.9776774 24.4109419,25.9263742 24.6546323,25.8141935 C25.0506065,25.6317419 25.5350968,25.6256 25.8537548,25.2363097 C25.5688774,24.9783484 25.3325935,25.2050581 25.1038968,25.2787613 C23.7701935,25.7081548 22.4290839,26.0260903 21.0336,25.5910968 C20.6426839,25.4693419 20.4168774,25.6321032 20.202271,25.9332387 C19.4218839,27.0274065 19.3987613,28.6897032 20.162529,29.8288516 C20.8179097,30.8061419 21.1468645,31.7597677 20.4530065,32.9242065 C20.0451097,33.6092129 20.4195871,34.4015226 20.7774452,35.0709935 C20.9821161,35.4534194 21.3661677,35.288671 21.6683871,35.1665548 C22.2813161,34.919071 22.8765419,34.6280516 23.4891097,34.3794839 C24.4476129,33.9907355 25.0379613,34.2851871 25.3378323,35.2865032 C25.4856,35.7793032 25.5584,36.2851097 25.5542452,36.8008516 C25.5495484,37.3644645 25.8281032,37.7107613 26.3740129,37.8276387 C27.8504258,38.1437677 29.3362323,38.3329032 30.8455226,38.0901161 C31.0160516,38.0626581 31.2387871,38.0818065 31.3032774,37.8746065 C31.3704774,37.6585548 31.161471,37.5685935 31.0312258,37.4556903 C30.1684645,36.7085419 29.453471,35.9032258 29.503871,34.6387097 C29.5535484,33.3982194 30.1046968,32.7502452 31.3639742,32.6602839 C31.9328258,32.6196387 32.508,32.6328258 33.0788387,32.6582968 C34.2665806,32.7112258 34.3899613,32.897471 34.4154323,34.062271 C34.4334968,34.8912516 34.1719226,35.2512774 33.3154839,35.0399226 C33.1460387,34.9981935 32.9554581,35.031071 32.7758968,35.0446194 C32.5634581,35.0605161 32.3228387,35.0850839 32.2245677,35.2928258 C32.1058839,35.5441032 32.3568,35.6499613 32.4987871,35.7955613 C34.2165419,37.5568516 33.4426581,40.4222452 31.0771097,41.0588387 C28.5890839,41.7283097 26.2511742,41.1921548 23.9764903,40.1644645 C23.7786839,40.0750452 23.5929806,39.9343226 23.5494452,39.7226065 C23.3503742,38.7556129 22.7789935,38.9433032 22.0759226,39.1407484 C19.3039226,39.9191484 16.5416774,39.7572903 13.8198968,38.8732129 C13.1804129,38.6656516 12.7176,38.5952 12.6034323,39.4505548 C12.563871,39.7480774 12.3752774,40.0309677 12.0716129,40.1406194 C9.66180645,41.0111484 7.21225806,41.5709677 4.65143226,40.8843355 C2.73496774,40.3704 1.94663226,38.8352774 2.55667097,36.9067097 C2.75465806,36.2814968 2.96312258,35.6645935 3.59086452,35.1670968 C2.97215484,34.9300903 2.49091613,35.0213161 2.02701935,35.0158968 C1.4988129,35.0097548 1.28944516,34.8117677 1.28944516,34.2555613 C1.28962581,32.8223226 1.27427097,32.8116645 2.74020645,32.5728516 C4.2859871,32.3210323 5.39532903,32.6736516 5.87963871,33.5707355 C6.42735484,34.5854194 6.12098065,36.3878968 5.22263226,37.3536258 C5.08190968,37.5048258 4.88771613,37.6063484 4.53907097,37.8625032 C6.55308387,38.4109419 8.26018065,38.2891871 9.95083871,37.6789677 C10.2642581,37.5658839 10.289729,37.2884129 10.2976774,37.0089548 C10.3128516,36.4682839 10.3370581,35.9274323 10.3417548,35.3865806 C10.3488,34.5693419 10.8125161,34.2541161 11.5616516,34.2927742 C12.2569548,34.3285419 12.9461161,34.4562581 13.5585032,34.7994839 C14.3226323,35.2276129 14.7650323,34.9884387 14.9017806,34.1800516 C15.1187355,32.8983742 15.5434323,31.6468645 14.7617806,30.3362839 C14.2819871,29.5322323 14.2617548,28.5824 15.0883871,27.7808774 C15.6868645,27.2004645 15.2153806,26.5174452 14.9671742,25.9410065 C14.7148129,25.3551742 14.2715097,24.8795355 13.5816258,24.7579613 C13.4208516,24.7296 13.2795871,24.7964387 13.2550194,24.9834065 C13.2394839,25.1015484 13.2293677,25.2263742 13.2490581,25.3427097 C13.6173935,27.5126194 12.4964903,28.7854452 10.6967226,29.7060129 C10.0483871,30.0376774 9.36410323,30.3711484 8.80175484,31.0572387 C9.28154839,31.0621161 9.50807742,30.7855484 9.79747097,30.6677677 C10.1435871,30.5270452 10.4467097,29.9092387 10.8627355,30.4284129 C11.2679226,30.9340387 11.4700645,31.5708129 11.045729,32.1830194 C10.5238452,32.936129 9.11969032,33.2052903 8.24229677,32.7641548 C7.40175484,32.3416258 7.05581935,31.4768774 7.32227097,30.4587613 C7.62069677,29.3181677 8.36188387,28.5894452 9.4435871,28.1745032 C9.97504516,27.9707355 10.5446194,27.8542194 10.9993032,27.4754065 C11.8169032,26.7940129 11.8291871,25.6514323 11.0262194,24.9604645 C10.715329,24.692929 10.3760774,24.6329548 10.0305032,24.8477419 C9.63145806,25.0957677 9.828,25.4115355 9.97649032,25.7137548 C10.1264258,26.0190452 10.496929,26.3814194 10.0176774,26.6399226 C9.47556129,26.9322065 9.00263226,27.5866839 8.24283871,27.1679484 C8.05388387,27.0638968 7.94983226,26.7017032 7.66116129,26.9260645 C7.43445161,27.1023742 7.5768,27.3724387 7.60371613,27.605471 C7.78996129,29.2179097 7.0708129,30.4004129 5.6876129,30.7356903 C5.48908387,30.7839226 5.13754839,30.8491355 5.08949677,30.7683871 C4.62830968,29.9919742 3.85442581,30.1827355 3.17068387,30.0813935 C2.88941935,30.0396645 2.79169032,29.8151226 2.77850323,29.5502968 C2.72033548,28.3719484 3.67992258,27.6316645 4.0992,26.6588903 C4.34270968,26.0936516 5.29127742,26.0490323 6.0068129,26.1986065 C6.62498065,26.3277677 6.96748387,26.2078194 6.79587097,25.4787355 C6.71169032,25.1216 6.76154839,24.8854968 7.21623226,24.7530839 C7.95326452,24.5384774 7.96247742,23.6791484 8.32828387,23.1449806 C8.49032258,22.9083355 7.85246452,23.0223226 7.59269677,23.1251097 C6.41868387,23.5899097 5.71489032,23.4813419 4.92565161,22.5750452 C4.53889032,22.1310194 4.15339355,21.7616 3.56141935,21.6156387 C3.13834839,21.5114065 2.90224516,21.255071 3.30436129,20.8488 C3.59303226,20.5568774 3.54064516,20.2618839 3.37734194,19.9432258 C3.02345806,19.2529806 3.2740129,18.9290839 4.01212903,18.8873548 C4.28905806,18.8718194 4.5659871,18.7943226 4.72170323,18.5486452 C5.19969032,17.7944516 5.58049032,18.1483355 5.95063226,18.6414968 C6.1171871,18.8631484 6.29783226,19.0549935 6.5780129,19.1286968 C6.78701935,19.1834323 6.99945806,19.2419613 7.15228387,19.0295226 C7.27132903,18.8640516 7.24242581,18.6839484 7.12861935,18.5253419 C6.57259355,17.7500129 7.09086452,17.7977032 7.60985806,17.9261419 C8.03563871,18.0314581 8.36856774,17.8795355 8.72299355,17.6994323 C9.36374194,17.3739097 10.0359226,17.2602839 10.7305032,17.5146323 C11.3347613,17.7357419 11.7444645,18.1123871 11.8438194,18.8028129 C11.8956645,19.1633806 11.9245677,19.5853677 12.3572129,19.8353806 L12.3572129,19.8353806 Z" id="Fill-4" fill="#A1A1A1"></path>
                        <path d="M16.1442581,55.4535484 C13.6643613,55.4681806 12.4784258,54.7445161 11.6754581,52.738271 C11.2877935,51.7701935 11.4796387,51.4836903 12.5102194,51.4522581 C13.263871,51.4293161 13.8827613,51.5044645 14.2814452,52.3365161 C14.8882323,53.6022968 16.8196903,53.5061935 17.8038452,52.8515355 C18.5903742,52.3283871 18.3781161,51.2371097 17.4239484,50.8559484 C16.584671,50.520671 15.6856,50.3889806 14.8047742,50.1940645 C13.7032,49.9503742 12.6326968,49.5876387 12.0647484,48.4938323 C10.9239742,46.2964645 12.2596645,43.7686968 14.8114581,43.3432774 C15.9451871,43.1543226 17.0921032,43.2135742 18.1980129,43.5983484 C19.4805935,44.0447226 20.3825548,45.1938065 20.4129032,46.398529 C20.4253677,46.8987355 20.2824774,47.1982452 19.6986323,47.1720516 C18.9319742,47.1373677 18.1656774,47.4307355 17.7402581,46.3101935 C17.401729,45.4179871 15.4270968,45.2295742 14.6477935,45.8403355 C14.3231742,46.0946839 14.0973677,46.427071 14.2241806,46.8580903 C14.3699613,47.3543226 14.7202323,47.6747871 15.2298323,47.7916645 C16.1968258,48.0133161 17.1647226,48.2315355 18.1347871,48.4389161 C20.4636645,48.9365935 20.9344258,50.3300903 20.6116129,52.4808516 C20.3247484,54.3913548 19.0851613,55.3793032 17.1367226,55.4517419 C16.8063226,55.4640258 16.4750194,55.4535484 16.1442581,55.4535484" id="Fill-6" fill="#EC1822"></path>
                        <path d="M6.20805161,55.4660129 C3.35927742,55.8036387 1.6128,53.0840258 1.34309677,50.6144258 C1.12252903,48.5944516 1.39187097,46.6648 2.64030968,44.9510194 C2.9884129,44.4732129 3.34898065,44.0398452 3.87411613,43.8033806 C6.29187097,42.714271 9.41793548,43.0638194 10.844129,45.9196387 C11.460671,47.1543484 11.231071,47.5048 9.88291613,47.5514065 C9.09837419,47.5785032 8.68614194,47.4471742 8.38446452,46.5921806 C8.05298065,45.6526452 7.04534194,45.586529 6.14193548,45.6672774 C5.2136,45.7501935 4.43574194,46.1501419 4.11834839,47.0721548 C3.66059355,48.4026065 3.54516129,49.7713548 3.92632258,51.1543742 C4.38317419,52.8112516 6.22665806,53.6089806 7.72908387,52.7809032 C8.12776774,52.5612387 8.4820129,52.2848516 8.53385806,51.7674839 C8.56854194,51.4226323 8.67512258,51.0757935 9.09855484,51.0777806 C9.74725161,51.080671 10.4647742,50.8297548 11.0208,51.2605935 C11.3605935,51.5237935 11.118529,51.999071 10.9711226,52.3522323 C10.2427613,54.0981677 8.75063226,55.6696 6.20805161,55.4660129" id="Fill-7" fill="#EC1822"></path>
                        <path d="M26.9806194,49.4890065 C26.994529,50.0287742 26.9793548,50.5696258 27.1269419,51.1005419 C27.4331355,52.2022968 28.254529,52.9797935 29.2245935,53.0621677 C30.6495226,53.1832 31.3610839,52.783071 31.9364387,51.5371613 C32.1393032,51.0976516 33.4719226,50.8129548 34.0438452,51.1207742 C34.6293161,51.436 34.3126452,51.9054968 34.1674065,52.3034581 C33.0437935,55.3805677 29.2368774,56.6094968 26.6599742,54.7069419 C25.6783484,53.9820129 25.1759742,52.8849548 24.8314839,51.7654968 C24.0128,49.1058581 24.5323355,46.6584774 26.199871,44.4450323 C26.2533419,44.3740387 26.322529,44.3115355 26.3937032,44.2573419 C28.4819613,42.6734452 32.6946065,42.6232258 34.1590968,46.1456258 C34.6186581,47.2509935 34.3897806,47.5040774 33.2231742,47.5333419 C32.4592258,47.552671 32.0598194,47.3852129 31.6987097,46.6068129 C31.2158452,45.5659355 30.0940387,45.5189677 29.0827871,45.7003355 C28.1338581,45.8705032 27.4745032,46.4722323 27.2071484,47.4334452 C27.0203613,48.1050839 26.9569548,48.7926194 26.9806194,49.4890065" id="Fill-8" fill="#EC1822"></path>
                        <path d="M21.1642065,49.2442323 C21.1642065,47.6207742 21.1936516,45.9964129 21.1499355,44.3740387 C21.1322323,43.7126968 21.3293161,43.4090323 22.0060129,43.4621419 C22.2749935,43.4834581 22.548671,43.4852645 22.8172903,43.4617806 C23.5355355,43.3990968 23.763329,43.7515355 23.7597161,44.4275097 C23.7429161,47.7045935 23.7232258,50.9820387 23.7658581,54.2584 C23.7803097,55.3655742 23.0934968,55.2293677 22.3915097,55.2589935 C21.6230452,55.291329 21.1237419,55.1650581 21.1555355,54.2043871 C21.210271,52.5527484 21.1707097,50.8978581 21.1707097,49.2442323 L21.1642065,49.2442323" id="Fill-9" fill="#EC1822"></path>
                    </g>
                    <g id="Group-4" fill="#EC1822">
                        <path d="M8.33850323,28.5881806 L8.35963871,28.5881806 C8.35963871,27.1133935 8.34157419,25.6384258 8.3675871,24.1641806 C8.37969032,23.4739355 8.05236129,23.2862452 7.4248,23.2936516 C6.82812903,23.3008774 6.44425806,23.4177548 6.44859355,24.1338323 C6.46575484,27.0530581 6.47027097,29.9726452 6.44534194,32.8916903 C6.43883871,33.6485935 6.86010323,33.6830968 7.43112258,33.6906839 C8.05055484,33.6991742 8.37661935,33.5505032 8.3524129,32.8308129 C8.30508387,31.4179871 8.33850323,30.0026323 8.33850323,28.5881806 L8.33850323,28.5881806 Z M2.84110968,13.7022968 C2.83984516,16.2826323 3.90872258,17.9882839 5.99860645,18.7410323 C8.2460129,19.5508645 10.6088516,18.6171097 11.5514581,16.5384258 C11.6690581,16.2792 11.8870968,16.0138323 11.5971613,15.7155871 C11.0440258,15.1460129 10.0676387,15.2800516 9.71212903,16.0080516 C9.26665806,16.920671 8.53956129,17.3390452 7.5460129,17.351329 C6.52374194,17.3637935 5.69421935,16.9755871 5.25344516,16.0421935 C4.5500129,14.5525935 4.51858065,12.9690581 5.15156129,11.4816258 C5.98686452,9.5180129 8.46116129,9.37403871 9.64023226,11.1712774 C10.1866839,12.0042323 10.8008774,11.432671 11.2945806,11.2541935 C11.8979355,11.0359742 11.4777548,10.5272774 11.2889806,10.2086194 C10.7797419,9.34983226 10.0396387,8.76110968 9.05205161,8.50549677 C5.56325161,7.60245161 2.84291613,9.8764129 2.84110968,13.7022968 L2.84110968,13.7022968 Z M3.22425806,43.3149161 C3.22425806,44.757729 3.23383226,46.2005419 3.2192,47.6431742 C3.21378065,48.1800516 3.36190968,48.5005161 3.97501935,48.4961806 C5.80694194,48.4831742 7.64157419,48.5612129 9.46572903,48.3251097 C10.6088516,48.1771613 11.5478452,47.3003097 11.7684129,46.2045161 C12.0234839,44.9378323 11.6574968,43.9634323 10.5718194,43.3680258 C9.91174194,43.0060129 10.2311226,42.8121806 10.5562839,42.4700387 C12.0242065,40.9249806 11.4118194,38.8107097 9.3531871,38.2857548 C9.00634839,38.1972387 8.64343226,38.1338323 8.28701935,38.1287742 C6.90454194,38.1089032 5.52116129,38.1419613 4.13940645,38.105471 C3.41646452,38.0863226 3.19806452,38.3959484 3.2136,39.0769806 C3.24593548,40.4890839 3.22335484,41.902271 3.22425806,43.3149161 L3.22425806,43.3149161 Z M14.7813935,28.0003613 C14.7815742,36.9086968 14.7698323,45.8172129 14.8007226,54.725729 C14.8036129,55.5807226 14.6025548,55.8581935 13.7117935,55.8480774 C9.58910968,55.801471 5.46552258,55.8059871 1.34265806,55.8430194 C0.474116129,55.8509677 0.211096774,55.5753032 0.212180645,54.7103742 C0.232593548,36.8633548 0.231509677,19.0163355 0.214529032,1.16931613 C0.213625806,0.365083871 0.43636129,0.0621419355 1.28322581,0.0695483871 C5.40609032,0.105135484 9.52985806,0.112541935 13.6525419,0.0637677419 C14.6086968,0.0523870968 14.7992774,0.408258065 14.7967484,1.27499355 C14.7714581,10.183329 14.7812129,19.0918452 14.7813935,28.0003613 L14.7813935,28.0003613 Z" id="Fill-3"></path>
                        <path d="M7.08717419,46.9299871 C5.01860645,46.9348645 4.98789677,46.8844645 5.14776774,44.696671 C5.18714839,44.1565419 5.38007742,43.8676903 5.95163871,43.8499871 C6.88232258,43.8212645 7.80776774,43.8494452 8.72472258,44.0138323 C9.48343226,44.1496774 9.87326452,44.6301935 9.88175484,45.3890839 C9.89042581,46.1510452 9.50131613,46.6180129 8.74892903,46.7851097 C8.15948387,46.9160774 7.56425806,46.9485935 7.08717419,46.9299871" id="Fill-10"></path>
                        <path d="M7.02954839,42.2841548 C6.93940645,42.2841548 6.84926452,42.2843355 6.75894194,42.2839742 C5.18245161,42.2794581 4.79569032,41.7628129 5.17143226,40.1978839 C5.2556129,39.8468903 5.44763871,39.6781677 5.79556129,39.679071 C6.57667097,39.6810581 7.36030968,39.6514323 8.13816774,39.7049032 C8.91476129,39.7581935 9.44874839,40.1641032 9.48704516,40.9999484 C9.51901935,41.6957935 8.89380645,42.2227355 8.02110968,42.2731355 C7.6916129,42.2922839 7.36012903,42.2762065 7.02954839,42.2762065 L7.02954839,42.2841548" id="Fill-11"></path>
                    </g>
                </g>
                <path d="M41.7065293,38.6370529 C41.8192475,38.6218289 42.0104047,38.7065188 42.0854157,38.5369373 C42.1620399,38.3638272 41.982578,38.2689543 41.8762115,38.1769045 C41.4555851,37.8135445 41.0774044,37.4100577 40.7473155,36.9657382 C40.5065542,36.6414969 40.2106437,36.5598317 39.8688595,36.7320344 C39.4211121,36.9576725 38.9886895,37.2147668 38.5570735,37.4706513 C38.4452627,37.5368909 38.3267977,37.6387204 38.3371823,37.7874318 C38.3486759,37.9499557 38.5000087,37.9808071 38.6269427,38.024261 C39.6165038,38.3631214 40.639235,38.5372398 41.7065293,38.6370529 L41.7065293,38.6370529 Z M0.76410841,13.33746 C0.64231628,13.0977069 0.432103869,13.0456831 0.272604572,12.9302428 C0.09868783,12.8044178 -0.0241125134,12.6469349 0.00401662931,12.4237165 C0.0322465933,12.1996916 0.170674238,12.0607599 0.39802627,12.0271864 C0.645038455,11.9906891 0.688593256,11.8922875 0.592510557,11.648804 C0.355479681,11.048514 0.550165611,10.7935369 1.20298353,10.8744964 C1.48790452,10.9097839 1.67260914,10.92158 1.79248567,10.6079249 C1.89744064,10.3333885 2.1452594,10.317862 2.38632313,10.4318909 C2.59885443,10.5325106 2.79152393,10.667107 2.94205013,10.8562478 C3.78521866,11.9157788 4.76005981,12.852812 5.9149678,13.5446478 C7.03095877,14.2131938 8.30896957,14.5026517 9.58536723,14.7363555 C11.6672263,15.1175609 13.7760046,15.2907718 15.8763139,15.5271978 C16.4920296,15.5965629 17.1176257,15.5431276 17.7353578,15.6367905 C18.0876275,15.6903267 18.2193001,15.5367758 18.1446923,15.1650477 C17.9762199,14.327021 17.7830463,13.4894985 17.8929415,12.6207214 C17.9203649,12.4035523 17.9296405,12.1887021 18.0236059,11.9847406 C18.6202664,10.6892877 20.399964,9.76697446 21.7856519,10.0518955 C22.5567332,10.2103865 23.1904959,10.6205276 23.6225152,11.269111 C24.0087616,11.849136 24.5361578,12.2901283 25.0030612,12.7862699 C25.2795133,13.0800632 25.579255,13.3393756 25.7562972,13.7095914 C25.8238474,13.8506404 25.9276934,13.9609389 26.0701539,14.0250612 C27.1525714,14.5120281 28.2355938,15.0005073 29.3132726,15.4944309 C30.1348654,15.8708976 30.9389153,16.327114 31.6705755,16.8940322 C32.7750728,17.7499042 33.6645183,18.867105 34.9114761,19.5479512 C35.0123983,19.6031005 35.1073719,19.6843625 35.1798624,19.7739926 C36.1274818,20.9437213 37.3749438,21.7876964 38.5064612,22.7460029 C39.999423,24.010302 41.5296887,25.2405235 43.1512985,26.3510701 C44.0181601,26.9447059 44.7813773,27.6937074 45.2940536,28.6262036 C45.5953077,29.1740665 45.773963,29.8015783 45.8069316,30.431913 C45.8314311,30.9011354 45.7452289,31.3794316 45.6758639,31.8489564 C45.6455167,32.0547327 45.6708228,32.2009236 45.8247769,32.3425775 C46.7414442,33.1858468 47.4470925,34.2075699 48.2294658,35.1658764 C48.5230574,35.5255059 48.8807714,35.8348257 49.1516782,36.222786 C49.9343539,37.3436164 50.7007975,38.4774528 51.5291453,39.5639031 C52.0769074,40.2824565 52.825808,40.7729521 53.6043501,41.25145 C54.2833815,41.6688502 55.0379282,41.7846939 55.7309738,42.099458 C56.8693471,42.6165704 57.8729223,43.3382493 58.8132826,44.1581281 C59.3950215,44.6653601 59.9412713,45.2046532 60.4786488,45.7577588 C60.9261945,46.2185122 61.1995211,46.7972265 61.6318428,47.2747161 C62.4755155,48.2065066 63.3997443,48.9634729 64.6435767,49.2717844 C65.1117908,49.3878298 65.50943,49.6301033 65.8222785,50.0049569 C66.2216317,50.4831524 66.2065085,51.0159929 65.7414198,51.4362161 C65.3772533,51.7652968 64.9600548,52.0383209 64.4618967,52.0991162 C63.6465549,52.1987276 63.0658242,52.6405265 62.6196899,53.2894124 C62.0861436,54.0655348 61.3821085,54.6128936 60.4806652,54.8783561 C59.8724103,55.0574147 59.2424788,55.0339234 58.6445077,54.8399432 C58.2021038,54.6964745 58.1147926,53.5090012 58.4972078,53.1534045 C58.7614604,52.9076022 59.0925576,52.7682671 59.4276876,52.667345 C60.7485474,52.2694033 61.0874078,51.0191184 60.1338399,49.9726941 C59.6861934,49.4812911 59.1229048,49.14112 58.5170696,48.8790855 C54.7045121,47.229649 50.7571566,45.9568809 46.8110109,44.6784668 C44.9878593,44.0877548 43.1388975,43.5873787 41.2671501,43.2008299 C38.9751795,42.7274739 36.6389483,42.6217123 34.3009024,42.6728287 C31.5666287,42.7325149 28.8774222,42.3829675 26.2045487,41.8503285 C25.5175523,41.7134132 24.952449,41.3897768 24.505609,40.8487698 C24.0957704,40.352729 24.1550533,39.2770665 24.6171173,38.6296929 C25.5830862,37.2759653 26.7943533,36.1735853 28.1071474,35.1703125 C29.3073242,34.2531411 30.4967131,33.3174186 31.7058629,32.417891 C32.4386321,31.8728511 33.0151283,31.3127887 33.372439,30.4906919 C33.5852728,30.0012044 33.5542198,29.5083899 33.4794104,29.0069048 C33.4438205,28.7687649 33.2863376,28.6222715 33.0726973,28.5315324 C31.9074047,28.0366006 30.7112608,27.6101265 29.6195678,26.951965 C29.4993888,26.8795754 29.3239597,26.8587053 29.1798861,26.8725179 C27.8164796,27.0036864 26.6419115,27.4469976 25.7297812,28.5778093 C24.8088794,29.7195097 24.3283651,31.0524681 23.7852408,32.365968 C23.0891705,34.0492805 22.0886199,35.5653303 21.2254888,37.1569962 C20.8269422,37.8919835 20.500382,38.6663919 20.149423,39.4266853 C19.9146102,39.9354296 19.6459215,40.4009215 19.1409076,40.708124 C18.8005349,40.915211 18.4238665,40.8861745 18.0697821,40.9415253 C17.0974615,41.0935639 16.1577061,41.4710388 15.1477792,41.3788881 C14.8768723,41.3541869 14.6194756,41.3574132 14.4335611,41.0976975 C14.2830349,40.8871827 14.0349137,40.9730824 13.8221807,40.9735865 C13.4268604,40.9743931 12.8753679,40.5399541 12.8119513,40.1702424 C12.7769663,39.9662809 12.9032954,39.8598136 13.0638029,39.7820804 C14.0864333,39.2868462 15.1979882,39.097403 16.2920001,38.8491809 C16.4870893,38.8049204 16.6922607,38.8063319 16.8901729,38.7717502 C17.9363955,38.589062 18.1096065,38.341344 18.1535646,37.2734448 C18.2716263,34.4081035 18.9080104,31.6905661 20.5865842,29.3015046 C20.9134469,28.836416 21.1240626,28.3420891 21.2494842,27.7939237 C21.6532736,26.0276354 22.221704,24.3004657 22.4956355,22.5031244 C22.6276106,21.6375735 22.5875845,21.560546 21.7317125,21.393586 C18.979896,20.8569142 16.2221309,20.3737785 13.4313974,20.0586111 C11.9649516,19.8929617 10.5720045,19.3236238 9.20839639,18.7481359 C7.73953087,18.1282865 6.25029945,17.550278 4.8612844,16.754193 C4.71892472,16.6725278 4.5431932,16.5807804 4.39196125,16.5943913 C3.54213851,16.6708138 2.73839111,16.3303403 1.89623079,16.3431446 C1.66736644,16.3465725 1.43396513,16.2683352 1.20842788,16.2066325 C1.0546754,16.1644892 0.943671145,16.0513677 0.929959448,15.8825929 C0.914634611,15.6932505 1.01515345,15.5567384 1.18160941,15.4845504 C1.31902885,15.424965 1.4688493,15.3941137 1.61292293,15.3497523 C1.79540949,15.293494 2.07176067,15.3226314 2.06571139,15.0508172 C2.06016622,14.7974532 1.79157828,14.8007803 1.60808351,14.7348432 C1.32376745,14.6326104 1.04005631,14.5283612 0.756849276,14.4228013 C0.490277759,14.3233915 0.285711341,14.176394 0.262421621,13.8551774 C0.237720403,13.5159137 0.502577958,13.4552193 0.76410841,13.33746 L0.76410841,13.33746 Z" id="Fill-1" fill="#999999" transform="translate(33.053507, 32.500000) scale(-1, 1) translate(-33.053507, -32.500000) "></path>
            </g>
        </g>
    </g>
</svg>