<?xml version="1.0" encoding="UTF-8" standalone="no"?>
<svg width="12px" height="12px" viewBox="0 0 12 12" version="1.1" xmlns="http://www.w3.org/2000/svg" xmlns:xlink="http://www.w3.org/1999/xlink">
    <!-- Generator: Sketch 3.7.2 (28276) - http://www.bohemiancoding.com/sketch -->
    <title>Shape</title>
    <desc>Created with Sketch.</desc>
    <defs></defs>
    <g id="Symbols" stroke="none" stroke-width="1" fill="none" fill-rule="evenodd">
        <g id="NAV" transform="translate(-1092.000000, -75.000000)" fill="#FFFFFF">
            <g id="Group-31" transform="translate(1080.000000, 66.000000)">
                <g id="Group-30" transform="translate(10.000000, 5.000000)">
                    <g id="Group-2">
                        <g id="Group-28" transform="translate(0.000000, 2.000000)">
                            <path d="M10.3333333,9.33333333 L9.80666667,9.33333333 L9.62,9.15333333 C10.2733333,8.39333333 10.6666667,7.40666667 10.6666667,6.33333333 C10.6666667,3.94 8.72666667,2 6.33333333,2 C3.94,2 2,3.94 2,6.33333333 C2,8.72666667 3.94,10.6666667 6.33333333,10.6666667 C7.40666667,10.6666667 8.39333333,10.2733333 9.15333333,9.62 L9.33333333,9.80666667 L9.33333333,10.3333333 L12.6666667,13.66 L13.66,12.6666667 L10.3333333,9.33333333 L10.3333333,9.33333333 Z M6.33333333,9.33333333 C4.67333333,9.33333333 3.33333333,7.99333333 3.33333333,6.33333333 C3.33333333,4.67333333 4.67333333,3.33333333 6.33333333,3.33333333 C7.99333333,3.33333333 9.33333333,4.67333333 9.33333333,6.33333333 C9.33333333,7.99333333 7.99333333,9.33333333 6.33333333,9.33333333 L6.33333333,9.33333333 Z" id="Shape"></path>
                        </g>
                    </g>
                </g>
            </g>
        </g>
    </g>
</svg>