<?xml version="1.0" encoding="UTF-8" standalone="no"?>
<svg width="18px" height="18px" viewBox="0 0 18 18" version="1.1" xmlns="http://www.w3.org/2000/svg" xmlns:xlink="http://www.w3.org/1999/xlink">
    <!-- Generator: Sketch 3.7.2 (28276) - http://www.bohemiancoding.com/sketch -->
    <title>Shape</title>
    <desc>Created with Sketch.</desc>
    <defs></defs>
    <g id="004.-Services" stroke="none" stroke-width="1" fill="none" fill-rule="evenodd">
        <g transform="translate(-999.000000, -1154.000000)" id="Shape" fill="#00C7AB">
            <path d="M1011.5,1165.55078 L1010.71,1165.55078 L1010.43,1165.28078 C1011.41,1164.14078 1012,1162.66078 1012,1161.05078 C1012,1157.46078 1009.09,1154.55078 1005.5,1154.55078 C1001.91,1154.55078 999,1157.46078 999,1161.05078 C999,1164.64078 1001.91,1167.55078 1005.5,1167.55078 C1007.11,1167.55078 1008.59,1166.96078 1009.73,1165.98078 L1010,1166.26078 L1010,1167.05078 L1015,1172.04078 L1016.49,1170.55078 L1011.5,1165.55078 L1011.5,1165.55078 Z M1005.5,1165.55078 C1003.01,1165.55078 1001,1163.54078 1001,1161.05078 C1001,1158.56078 1003.01,1156.55078 1005.5,1156.55078 C1007.99,1156.55078 1010,1158.56078 1010,1161.05078 C1010,1163.54078 1007.99,1165.55078 1005.5,1165.55078 L1005.5,1165.55078 Z"></path>
        </g>
    </g>
</svg>