<?xml version="1.0" encoding="UTF-8" standalone="no"?>
<svg width="28px" height="20px" viewBox="0 0 28 20" version="1.1" xmlns="http://www.w3.org/2000/svg" xmlns:xlink="http://www.w3.org/1999/xlink">
    <!-- Generator: Sketch 3.7.2 (28276) - http://www.bohemiancoding.com/sketch -->
    <title>Group 18</title>
    <desc>Created with Sketch.</desc>
    <defs></defs>
    <g id="004.-Services" stroke="none" stroke-width="1" fill="none" fill-rule="evenodd">
        <g id="004.-Services.-Biblioteca" transform="translate(-333.000000, -2527.000000)" fill="#00C7AB">
            <g id="Group-22" transform="translate(310.000000, 2005.000000)">
                <g id="Group-18" transform="translate(23.000000, 522.000000)">
                    <path d="M14,14 L10.536,10.968 L0.632,19.458 C0.992,19.792 1.478,20 2.014,20 L25.986,20 C26.52,20 27.004,19.792 27.362,19.458 L17.464,10.968 L14,14 L14,14 Z" id="Shape"></path>
                    <path d="M27.368,0.542 C27.008,0.206 26.524,0 25.986,0 L2.014,0 C1.48,0 0.996,0.208 0.636,0.546 L14,12 L27.368,0.542 L27.368,0.542 Z" id="Shape"></path>
                    <polygon id="Shape" points="0 1.756 0 18.372 9.666 10.158"></polygon>
                    <polygon id="Shape" points="18.334 10.158 28 18.372 28 1.75"></polygon>
                </g>
            </g>
        </g>
    </g>
</svg>