<?xml version="1.0" encoding="UTF-8" standalone="no"?>
<svg width="20px" height="18px" viewBox="0 0 20 18" version="1.1" xmlns="http://www.w3.org/2000/svg" xmlns:xlink="http://www.w3.org/1999/xlink">
    <!-- Generator: Sketch 3.7.2 (28276) - http://www.bohemiancoding.com/sketch -->
    <title>Shape</title>
    <desc>Created with Sketch.</desc>
    <defs></defs>
    <g id="003.-Research" stroke="none" stroke-width="1" fill="none" fill-rule="evenodd">
        <g id="003.-Research.-Departments" transform="translate(-722.000000, -2011.000000)" fill="#00C7AB">
            <path d="M739,2016 L725,2016 C723.34,2016 722,2017.34 722,2019 L722,2025 L726,2025 L726,2029 L738,2029 L738,2025 L742,2025 L742,2019 C742,2017.34 740.66,2016 739,2016 L739,2016 Z M736,2027 L728,2027 L728,2022 L736,2022 L736,2027 L736,2027 Z M739,2020 C738.45,2020 738,2019.55 738,2019 C738,2018.45 738.45,2018 739,2018 C739.55,2018 740,2018.45 740,2019 C740,2019.55 739.55,2020 739,2020 L739,2020 Z M738,2011 L726,2011 L726,2015 L738,2015 L738,2011 L738,2011 Z" id="Shape"></path>
        </g>
    </g>
</svg>