<?xml version="1.0" encoding="UTF-8" standalone="no"?>
<svg width="30px" height="25px" viewBox="0 0 30 25" version="1.1" xmlns="http://www.w3.org/2000/svg" xmlns:xlink="http://www.w3.org/1999/xlink">
    <!-- Generator: sketchtool 3.7.2 (28276) - http://www.bohemiancoding.com/sketch -->
    <title>200216A9-2511-451C-A332-C1B7EDA8209F</title>
    <desc>Created with sketchtool.</desc>
    <defs></defs>
    <g id="000.-System" stroke="none" stroke-width="1" fill="none" fill-rule="evenodd">
        <g id="System" transform="translate(-3765.000000, -3232.000000)" fill="#FFFFFF">
            <path d="M3790.26113,3233.99129 C3789.14133,3232.76576 3787.54093,3232 3785.76912,3232 C3782.37288,3232 3779.61664,3234.82593 3779.61664,3238.31108 C3779.61664,3238.80529 3779.66951,3239.28589 3779.77524,3239.74807 C3774.66006,3239.48454 3770.1256,3236.97501 3767.08821,3233.15184 C3766.55794,3234.08741 3766.25517,3235.17276 3766.25517,3236.3278 C3766.25517,3238.51693 3767.34132,3240.44894 3768.99378,3241.58076 C3767.98613,3241.55032 3767.03534,3241.26356 3766.2039,3240.79337 L3766.2039,3240.87107 C3766.2039,3243.93009 3768.32575,3246.48207 3771.14367,3247.05959 C3770.62782,3247.20778 3770.08314,3247.28147 3769.52164,3247.28147 C3769.12515,3247.28147 3768.73827,3247.24382 3768.3634,3247.17013 C3769.14678,3249.67646 3771.41841,3251.50194 3774.11217,3251.55 C3772.00634,3253.24411 3769.35103,3254.25337 3766.46823,3254.25337 C3765.97161,3254.25337 3765.4806,3254.22454 3765,3254.16686 C3767.7234,3255.9547 3770.96024,3257 3774.43497,3257 C3785.7571,3257 3791.94643,3247.3848 3791.94643,3239.04399 C3791.94643,3238.76925 3791.94162,3238.49531 3791.93121,3238.22617 C3793.13351,3237.33546 3794.17801,3236.22527 3794.99984,3234.95969 C3793.89766,3235.46112 3792.71058,3235.80074 3791.46583,3235.95293 C3792.73702,3235.17276 3793.71263,3233.93522 3794.17241,3232.46218 C3792.98212,3233.18468 3791.66688,3233.71013 3790.26113,3233.99129 Z" id="Twitter"></path>
        </g>
    </g>
</svg>