<?xml version="1.0" encoding="UTF-8" standalone="no"?>
<svg width="18px" height="18px" viewBox="0 0 18 18" version="1.1" xmlns="http://www.w3.org/2000/svg" xmlns:xlink="http://www.w3.org/1999/xlink">
    <!-- Generator: Sketch 3.7.2 (28276) - http://www.bohemiancoding.com/sketch -->
    <title>Shape</title>
    <desc>Created with Sketch.</desc>
    <defs></defs>
    <g id="003.-Research" stroke="none" stroke-width="1" fill="none" fill-rule="evenodd">
        <g id="003.-Research.-Departments" transform="translate(-340.000000, -1981.000000)" fill="#00C7AB">
            <path d="M340,1983 L340,1997 C340,1998.1 340.89,1999 342,1999 L356,1999 C357.1,1999 358,1998.1 358,1997 L358,1983 C358,1981.9 357.1,1981 356,1981 L342,1981 C340.89,1981 340,1981.9 340,1983 L340,1983 Z M352,1987 C352,1988.66 350.66,1990 349,1990 C347.34,1990 346,1988.66 346,1987 C346,1985.34 347.34,1984 349,1984 C350.66,1984 352,1985.34 352,1987 L352,1987 Z M343,1995 C343,1993 347,1991.9 349,1991.9 C351,1991.9 355,1993 355,1995 L355,1996 L343,1996 L343,1995 L343,1995 Z" id="Shape"></path>
        </g>
    </g>
</svg>